<svg width="20" height="20" viewBox="0 0 20 20" fill="none" xmlns="http://www.w3.org/2000/svg">
<g clip-path="url(#clip0_421_1201)">
<path d="M12.9313 11.9862C13.7188 10.9144 14.375 9.51438 14.375 7.8125C14.375 5.40188 12.4106 3.4375 10 3.4375C7.58938 3.4375 5.625 5.40188 5.625 7.8125C5.625 9.51438 6.28125 10.9144 7.06875 11.9862C4.78063 12.3713 3.4375 13.1587 3.4375 14.1562C3.4375 15.7356 6.74063 16.5625 10 16.5625C13.2594 16.5625 16.5625 15.7356 16.5625 14.1562C16.5625 13.1587 15.2194 12.3713 12.9313 11.9862ZM10 4.3125C11.9294 4.3125 13.5 5.88313 13.5 7.8125C13.5 10.98 10.8006 13.0494 10 13.5919C9.19938 13.0494 6.5 10.98 6.5 7.8125C6.5 5.88313 8.07063 4.3125 10 4.3125ZM10 15.6875C6.57875 15.6875 4.3125 14.7644 4.3125 14.1562C4.3125 13.7712 5.3975 13.0844 7.71625 12.7738C8.70937 13.85 9.69812 14.4406 9.77688 14.4888C9.84688 14.5281 9.92125 14.55 9.99563 14.55C10.07 14.55 10.1487 14.5281 10.2144 14.4888C10.2975 14.4406 11.2863 13.85 12.275 12.7738C14.5938 13.0844 15.6788 13.7712 15.6788 14.1562C15.6788 14.7644 13.4125 15.6875 9.99125 15.6875H10Z" fill="#F20A31" stroke="white" stroke-width="0.3"/>
<path d="M12.625 7.8125C12.625 6.36437 11.4481 5.1875 10 5.1875C8.55187 5.1875 7.375 6.36437 7.375 7.8125C7.375 9.26062 8.55187 10.4375 10 10.4375C11.4481 10.4375 12.625 9.26062 12.625 7.8125ZM8.25 7.8125C8.25 6.84562 9.03312 6.0625 10 6.0625C10.9669 6.0625 11.75 6.84562 11.75 7.8125C11.75 8.77938 10.9669 9.5625 10 9.5625C9.03312 9.5625 8.25 8.77938 8.25 7.8125Z" fill="#F20A31" stroke="white" stroke-width="0.3"/>
<path d="M13.2812 13.7188H12.8438C12.6031 13.7188 12.4062 13.9156 12.4062 14.1562C12.4062 14.3969 12.6031 14.5938 12.8438 14.5938H13.2812C13.5219 14.5938 13.7188 14.3969 13.7188 14.1562C13.7188 13.9156 13.5219 13.7188 13.2812 13.7188Z" fill="#F20A31" stroke="white" stroke-width="0.3"/>
<path d="M7.15625 13.7188H6.71875C6.47812 13.7188 6.28125 13.9156 6.28125 14.1562C6.28125 14.3969 6.47812 14.5938 6.71875 14.5938H7.15625C7.39688 14.5938 7.59375 14.3969 7.59375 14.1562C7.59375 13.9156 7.39688 13.7188 7.15625 13.7188Z" fill="#F20A31" stroke="white" stroke-width="0.3"/>
</g>
<defs>
<clipPath id="clip0_421_1201">
<rect width="14" height="14" fill="white" transform="translate(3 3)"/>
</clipPath>
</defs>
</svg>
